<svg xmlns="http://www.w3.org/2000/svg" xmlns:xlink="http://www.w3.org/1999/xlink" style="enable-background:new 0 2 98 98" id="Layer_1" width="512" height="512" x="0" y="0" version="1.1" viewBox="0 2 98 98" xml:space="preserve"><style type="text/css">.st0{fill:url(#SVGID_1_)}.st1{fill:url(#SVGID_2_)}.st2{fill:url(#SVGID_3_)}.st3{fill:url(#SVGID_4_)}</style><g><linearGradient id="SVGID_1_" x1="49.1" x2="49.1" y1="94.25" y2="11.763" gradientTransform="matrix(1 0 0 -1 0 104)" gradientUnits="userSpaceOnUse"><stop offset="0" style="stop-color:#00efd1"/><stop offset="1" style="stop-color:#00acea"/></linearGradient><path d="M63.8,26.2v-6.5c0-2.8-2.2-5-5-5H39.2c-2.8,0-5,2.2-5,5v6.5H13.3v6h6.3l5,56.4c0.1,1.5,1.4,2.7,3,2.7h42.9 c1.6,0,2.9-1.2,3-2.7l5-56.4h6.4v-6C84.9,26.2,63.8,26.2,63.8,26.2z M40.2,20.7h17.6v5.5H40.2V20.7z M67.7,85.3H30.2l-4.7-53.1 h46.7L67.7,85.3z" class="st0"/><linearGradient id="SVGID_2_" x1="59.95" x2="59.95" y1="94.25" y2="11.763" gradientTransform="matrix(1 0 0 -1 0 104)" gradientUnits="userSpaceOnUse"><stop offset="0" style="stop-color:#00efd1"/><stop offset="1" style="stop-color:#00acea"/></linearGradient><polygon points="63.6 41.1 57.6 40.9 56.3 76.4 62.3 76.6" class="st1"/><linearGradient id="SVGID_3_" x1="38.05" x2="38.05" y1="94.25" y2="11.763" gradientTransform="matrix(1 0 0 -1 0 104)" gradientUnits="userSpaceOnUse"><stop offset="0" style="stop-color:#00efd1"/><stop offset="1" style="stop-color:#00acea"/></linearGradient><polygon points="41.7 76.4 40.4 40.9 34.4 41.1 35.7 76.6" class="st2"/><linearGradient id="SVGID_4_" x1="49" x2="49" y1="94.25" y2="11.763" gradientTransform="matrix(1 0 0 -1 0 104)" gradientUnits="userSpaceOnUse"><stop offset="0" style="stop-color:#00efd1"/><stop offset="1" style="stop-color:#00acea"/></linearGradient><rect width="6" height="35.5" x="46" y="41" class="st3"/></g></svg>