<svg xmlns="http://www.w3.org/2000/svg" xmlns:xlink="http://www.w3.org/1999/xlink" id="Capa_1" x="0" y="0" version="1.1" viewBox="0 0 512 512" xml:space="preserve" style="enable-background:new 0 0 512 512"><circle style="fill:#00abe9" cx="256" cy="256" r="256"/><path style="fill:#0080af" d="M472.576,392.529L365.124,285.077l-79.826,80.496l107.091,107.091	C424.718,452.27,452.161,424.844,472.576,392.529z"/><polygon style="fill:#444" points="382.498 354.595 394 394 354.367 382.726 350.25 364.201 367.746 346.706"/><polygon style="fill:#5a5a5a" points="367.746 346.706 382.498 354.595 394 394 357.111 357.34"/><path style="fill:#ffc473" d="M365.459,285.412c1.882,8.542,14.478,58.744,17.039,69.183l-28.131,28.131	c-21.737-5.331-63.007-15.739-69.069-17.153l1.144-15.552l31.675-31.675l35.792-36.021L365.459,285.412z"/><polygon style="fill:#ff9f00" points="358.14 278.093 365.459 285.412 285.298 365.573 163.741 244.017 163.627 221.261 223.319 161.568 243.788 163.97"/><path style="fill:#ffd396" d="M353.909,282.324l11.55,3.088c1.882,8.542,14.478,58.744,17.039,69.183l-14.066,14.066	l-50.315-50.315L353.909,282.324z"/><polygon style="fill:#fdbf00" points="358.14 278.093 365.459 285.412 325.321 325.55 192.329 192.558 223.319 161.568 243.788 163.97"/><path style="fill:#444" d="M158.023,158.252L118,198.276l45.741,45.741l80.047-80.047L198.047,118L158.023,158.252z"/><polygon style="fill:#5a5a5a" points="243.788 163.97 203.764 203.993 158.023 158.252 198.047 118"/></svg>